# Blender v2.91.2 OBJ File: '3Model.blend'
# www.blender.org
mtllib 3Model.mtl
o 円錐
v 0.000000 -3.750000 -5.000000
v 4.330127 -3.750000 2.500000
v -4.330127 -3.750000 2.500000
v 0.000000 3.750000 0.000000
vt 0.250000 0.490000
vt 0.250000 0.250000
vt 0.457846 0.130000
vt 0.750000 0.490000
vt 0.957846 0.130000
vt 0.542154 0.130000
vt 0.042154 0.130000
vn 0.8216 0.3162 -0.4743
vn 0.0000 -1.0000 0.0000
vn -0.0000 0.3162 0.9487
vn -0.8216 0.3162 -0.4743
usemtl マテリアル
s off
f 1/1/1 4/2/1 2/3/1
f 1/4/2 2/5/2 3/6/2
f 2/3/3 4/2/3 3/7/3
f 3/7/4 4/2/4 1/1/4
