# Blender v2.91.2 OBJ File: '5Model.blend'
# www.blender.org
mtllib 5Model.mtl
o ICO球_ICO球.001
v 9.472150 -5.854050 -4.253200
v 9.472150 2.236075 -6.881801
v 9.472150 7.236000 -0.000000
v 9.472150 2.236075 6.881801
v 9.472150 -5.854050 4.253201
v 2.236075 -9.472050 -6.881800
v 2.236075 3.617999 -11.134999
v 2.236075 11.708125 -0.000001
v 2.236075 3.618001 11.135000
v 2.236075 -9.472050 6.881801
v -2.236075 -3.618001 -11.134999
v -2.236075 9.472050 -6.881801
v -2.236075 9.472050 6.881800
v -2.236075 -3.618000 11.134999
v -2.236075 -11.708125 0.000001
v -9.472150 -2.236075 -6.881801
v -9.472150 5.854050 -4.253201
v -9.472150 5.854050 4.253200
v -9.472150 -7.236000 0.000000
v -9.472150 -2.236074 6.881800
vt 0.363636 0.367408
vt 0.909090 0.367408
vt 0.727272 0.367408
vt 0.545454 0.262434
vt 0.454545 0.209948
vt 0.363636 0.262434
vt 0.272727 0.209948
vt 0.181818 0.262434
vt 0.090909 0.209948
vt 0.909090 0.262434
vt 0.818181 0.209948
vt 0.727272 0.262434
vt 0.636363 0.209948
vt 0.272727 0.104974
vt 0.090909 0.104974
vt 0.636363 0.104974
vt 0.818181 0.104974
vt 0.454545 0.104974
vt 0.545454 0.367408
vt 0.181818 0.367408
vn 1.0000 0.0000 0.0000
vn 0.4472 -0.2764 -0.8507
vn 0.4472 0.7236 -0.5257
vn 0.4472 0.7236 0.5257
vn 0.4472 -0.2764 0.8507
vn 0.4472 -0.8944 0.0000
vn -0.4472 0.2764 -0.8507
vn -0.4472 0.8944 0.0000
vn -0.4472 -0.7236 -0.5257
vn -0.4472 0.2764 0.8507
vn -1.0000 0.0000 0.0000
vn -0.4472 -0.7236 0.5257
usemtl マテリアル
s off
f 2/1/1 4/2/1 5/3/1
f 6/4/2 11/5/2 7/6/2
f 7/6/3 12/7/3 8/8/3
f 8/8/4 13/9/4 9/10/4
f 9/10/5 14/11/5 10/12/5
f 10/12/6 15/13/6 6/4/6
f 11/5/7 17/14/7 12/7/7
f 12/7/8 18/15/8 13/9/8
f 19/16/9 11/5/9 15/13/9
f 18/15/10 20/17/10 14/11/10
f 16/18/11 20/17/11 18/15/11
f 14/11/12 20/17/12 19/16/12
f 5/3/1 1/19/1 2/1/1
f 2/1/1 3/20/1 4/2/1
f 7/6/2 2/1/2 1/19/2
f 1/19/2 6/4/2 7/6/2
f 8/8/3 3/20/3 2/1/3
f 2/1/3 7/6/3 8/8/3
f 9/10/4 4/2/4 3/20/4
f 3/20/4 8/8/4 9/10/4
f 10/12/5 5/3/5 4/2/5
f 4/2/5 9/10/5 10/12/5
f 6/4/6 1/19/6 5/3/6
f 5/3/6 10/12/6 6/4/6
f 12/7/7 7/6/7 11/5/7
f 11/5/7 16/18/7 17/14/7
f 13/9/8 8/8/8 12/7/8
f 12/7/8 17/14/8 18/15/8
f 16/18/9 11/5/9 19/16/9
f 11/5/9 6/4/9 15/13/9
f 14/11/10 9/10/10 13/9/10
f 13/9/10 18/15/10 14/11/10
f 18/15/11 17/14/11 16/18/11
f 16/18/11 19/16/11 20/17/11
f 19/16/12 15/13/12 10/12/12
f 10/12/12 14/11/12 19/16/12
