# Blender v2.90.1 OBJ File: '3DMapDeleteBlock.blend'
# www.blender.org
mtllib 3DMapDeleteBlock.mtl
o Cube
v 20.000000 19.500000 -19.500000
v 20.000000 19.500000 -20.500000
v 20.000000 -20.500000 -19.500000
v 20.000000 -20.500000 -20.500000
v -20.000000 19.500000 -19.500000
v -20.000000 19.500000 -20.500000
v -20.000000 -20.500000 -19.500000
v -20.000000 -20.500000 -20.500000
v 19.999998 19.999996 -20.000002
v 19.999998 18.999996 -20.000002
v 19.999998 19.999998 20.000000
v 19.999998 18.999996 20.000000
v -19.999998 19.999996 -20.000002
v -19.999998 18.999996 -20.000002
v -19.999998 19.999998 20.000000
v -19.999998 18.999996 20.000000
v -19.500000 -20.500000 -20.000000
v -20.500000 -20.500000 -20.000000
v -19.500000 -20.500000 20.000000
v -20.500000 -20.500000 20.000000
v -19.499998 19.499998 -20.000000
v -20.499996 19.499998 -20.000000
v -19.499998 19.499998 20.000000
v -20.499996 19.499998 20.000000
v 20.499996 -20.500000 -20.000000
v 19.499998 -20.500000 -20.000000
v 20.499996 -20.500000 20.000000
v 19.499998 -20.500000 20.000000
v 20.500000 19.499998 -20.000000
v 19.500000 19.499998 -20.000000
v 20.500000 19.499998 20.000000
v 19.500000 19.499998 20.000000
v 19.999998 19.499998 20.500000
v 19.999998 19.499998 19.500000
v 19.999998 -20.500000 20.500000
v 19.999998 -20.500000 19.500000
v -19.999998 19.499998 20.500000
v -19.999998 19.499998 19.500000
v -19.999998 -20.500000 20.500000
v -19.999998 -20.500000 19.500000
v 19.999998 -20.000000 -20.000000
v 19.999998 -21.000002 -20.000000
v 19.999998 -20.000002 20.000000
v 19.999998 -21.000002 20.000000
v -19.999998 -20.000000 -20.000000
v -19.999998 -21.000002 -20.000000
v -19.999998 -20.000002 20.000000
v -19.999998 -21.000002 20.000000
vt 0.875000 0.500000
vt 0.625000 0.750000
vt 0.625000 0.500000
vt 0.375000 1.000000
vt 0.375000 0.750000
vt 0.625000 0.000000
vt 0.375000 0.250000
vt 0.375000 0.000000
vt 0.375000 0.500000
vt 0.125000 0.750000
vt 0.125000 0.500000
vt 0.625000 0.250000
vt 0.875000 0.750000
vt 0.625000 1.000000
vt 0.875000 0.500000
vt 0.625000 0.750000
vt 0.625000 0.500000
vt 0.375000 1.000000
vt 0.375000 0.750000
vt 0.625000 0.000000
vt 0.375000 0.250000
vt 0.375000 0.000000
vt 0.375000 0.500000
vt 0.125000 0.750000
vt 0.125000 0.500000
vt 0.625000 0.250000
vt 0.875000 0.750000
vt 0.625000 1.000000
vt 0.875000 0.500000
vt 0.625000 0.750000
vt 0.625000 0.500000
vt 0.375000 1.000000
vt 0.375000 0.750000
vt 0.625000 0.000000
vt 0.375000 0.250000
vt 0.375000 0.000000
vt 0.125000 0.500000
vt 0.125000 0.750000
vt 0.375000 0.500000
vt 0.625000 0.250000
vt 0.875000 0.750000
vt 0.625000 1.000000
vt 0.875000 0.500000
vt 0.625000 0.750000
vt 0.625000 0.500000
vt 0.375000 1.000000
vt 0.375000 0.750000
vt 0.625000 0.000000
vt 0.375000 0.250000
vt 0.375000 0.000000
vt 0.375000 0.500000
vt 0.125000 0.750000
vt 0.125000 0.500000
vt 0.625000 0.250000
vt 0.875000 0.750000
vt 0.625000 1.000000
vt 0.875000 0.500000
vt 0.625000 0.750000
vt 0.625000 0.500000
vt 0.375000 1.000000
vt 0.375000 0.750000
vt 0.625000 0.000000
vt 0.375000 0.250000
vt 0.375000 0.000000
vt 0.375000 0.500000
vt 0.125000 0.750000
vt 0.125000 0.500000
vt 0.625000 0.250000
vt 0.875000 0.750000
vt 0.625000 1.000000
vt 0.875000 0.500000
vt 0.625000 0.750000
vt 0.625000 0.500000
vt 0.375000 1.000000
vt 0.375000 0.750000
vt 0.625000 0.000000
vt 0.375000 0.250000
vt 0.375000 0.000000
vt 0.375000 0.500000
vt 0.125000 0.750000
vt 0.125000 0.500000
vt 0.625000 0.250000
vt 0.875000 0.750000
vt 0.625000 1.000000
vn 0.0000 0.0000 1.0000
vn 0.0000 -1.0000 0.0000
vn -1.0000 0.0000 0.0000
vn 0.0000 0.0000 -1.0000
vn 1.0000 0.0000 0.0000
vn 0.0000 1.0000 0.0000
usemtl Material
s off
f 5/1/1 3/2/1 1/3/1
f 3/2/2 8/4/2 4/5/2
f 7/6/3 6/7/3 8/8/3
f 2/9/4 8/10/4 6/11/4
f 1/3/5 4/5/5 2/9/5
f 5/12/6 2/9/6 6/7/6
f 5/1/1 7/13/1 3/2/1
f 3/2/2 7/14/2 8/4/2
f 7/6/3 5/12/3 6/7/3
f 2/9/4 4/5/4 8/10/4
f 1/3/5 3/2/5 4/5/5
f 5/12/6 1/3/6 2/9/6
usemtl Material.001
f 13/15/6 11/16/6 9/17/6
f 11/16/1 16/18/1 12/19/1
f 15/20/3 14/21/3 16/22/3
f 10/23/2 16/24/2 14/25/2
f 9/17/5 12/19/5 10/23/5
f 13/26/4 10/23/4 14/21/4
f 13/15/6 15/27/6 11/16/6
f 11/16/1 15/28/1 16/18/1
f 15/20/3 13/26/3 14/21/3
f 10/23/2 12/19/2 16/24/2
f 9/17/5 11/16/5 12/19/5
f 13/26/4 9/17/4 10/23/4
usemtl Material.002
f 21/29/5 19/30/5 17/31/5
f 19/30/1 24/32/1 20/33/1
f 23/34/6 22/35/6 24/36/6
f 22/37/3 20/33/3 24/38/3
f 17/31/2 20/33/2 18/39/2
f 21/40/4 18/39/4 22/35/4
f 21/29/5 23/41/5 19/30/5
f 19/30/1 23/42/1 24/32/1
f 23/34/6 21/40/6 22/35/6
f 22/37/3 18/39/3 20/33/3
f 17/31/2 19/30/2 20/33/2
f 21/40/4 17/31/4 18/39/4
usemtl Material.003
f 29/43/5 27/44/5 25/45/5
f 27/44/1 32/46/1 28/47/1
f 31/48/6 30/49/6 32/50/6
f 26/51/3 32/52/3 30/53/3
f 25/45/2 28/47/2 26/51/2
f 29/54/4 26/51/4 30/49/4
f 29/43/5 31/55/5 27/44/5
f 27/44/1 31/56/1 32/46/1
f 31/48/6 29/54/6 30/49/6
f 26/51/3 28/47/3 32/52/3
f 25/45/2 27/44/2 28/47/2
f 29/54/4 25/45/4 26/51/4
usemtl Material.004
f 37/57/1 35/58/1 33/59/1
f 35/58/2 40/60/2 36/61/2
f 39/62/3 38/63/3 40/64/3
f 34/65/4 40/66/4 38/67/4
f 33/59/5 36/61/5 34/65/5
f 37/68/6 34/65/6 38/63/6
f 37/57/1 39/69/1 35/58/1
f 35/58/2 39/70/2 40/60/2
f 39/62/3 37/68/3 38/63/3
f 34/65/4 36/61/4 40/66/4
f 33/59/5 35/58/5 36/61/5
f 37/68/6 33/59/6 34/65/6
usemtl Material.005
f 45/71/6 43/72/6 41/73/6
f 43/72/1 48/74/1 44/75/1
f 47/76/3 46/77/3 48/78/3
f 42/79/2 48/80/2 46/81/2
f 41/73/5 44/75/5 42/79/5
f 45/82/4 42/79/4 46/77/4
f 45/71/6 47/83/6 43/72/6
f 43/72/1 47/84/1 48/74/1
f 47/76/3 45/82/3 46/77/3
f 42/79/2 44/75/2 48/80/2
f 41/73/5 43/72/5 44/75/5
f 45/82/4 41/73/4 42/79/4
