# Blender v2.90.1 OBJ File: '3DPlayer.blend1'
# www.blender.org
mtllib 3DPlayer0118.mtl
o 立方体.008_立方体.015
v -2.000000 -2.000000 2.000000
v -2.000000 2.000000 2.000000
v -2.000000 -2.000000 -2.000000
v -2.000000 2.000000 -2.000000
v 2.000000 -2.000000 2.000000
v 2.000000 2.000000 2.000000
v 2.000000 -2.000000 -2.000000
v 2.000000 2.000000 -2.000000
v -196.000000 -0.000000 0.000000
v -204.000000 0.000000 0.000000
v -196.000000 -0.000000 26.098225
v -204.000000 0.000000 26.098225
v -204.000000 0.000000 -24.140013
v -196.000000 -0.000000 -24.140013
v -196.000000 24.994221 0.000000
v -204.000000 24.994221 0.000000
v -196.000000 24.994221 26.098225
v -204.000000 24.994221 26.098225
v -196.000000 24.994221 -24.140013
v -204.000000 24.994221 -24.140013
v -204.000000 -25.000000 0.000000
v -204.000000 -25.000000 26.098225
v -204.000000 -25.000000 -24.140013
v -196.000000 -25.000000 0.000000
v -196.000000 -25.000000 26.098225
v -196.000000 -25.000000 -24.140013
v 0.000000 -196.000000 -0.047414
v 0.000000 -204.000000 -0.047414
v 0.000000 -196.000000 -25.035563
v 0.000000 -204.000000 -25.035563
v 0.000000 -196.000000 24.964437
v 0.000000 -204.000000 24.964437
v -25.000000 -196.000000 -0.047414
v -25.000000 -204.000000 -0.047414
v -25.000000 -196.000000 -25.035563
v -25.000000 -204.000000 -25.035563
v -25.000000 -196.000000 24.964437
v -25.000000 -204.000000 24.964437
v 25.000000 -204.000000 -0.047414
v 25.000000 -196.000000 -0.047414
v 25.000000 -204.000000 -25.035563
v 25.000000 -196.000000 -25.035563
v 25.000000 -204.000000 24.964437
v 25.000000 -196.000000 24.964437
v 204.000000 -0.000000 0.000000
v 196.000000 0.000000 0.000000
v 196.000000 -25.000000 0.000000
v 204.000000 -25.000000 0.000000
v 204.000000 -0.000000 24.712723
v 196.000000 0.000000 24.712723
v 196.000000 -25.000000 24.712723
v 204.000000 -25.000000 24.712723
v 196.000000 0.000000 -25.000731
v 204.000000 -0.000000 -25.000731
v 196.000000 -25.000000 -25.000731
v 204.000000 -25.000000 -25.000731
v 204.000000 25.257704 0.000000
v 196.000000 25.257704 0.000000
v 204.000000 25.257704 24.712723
v 196.000000 25.257704 24.712723
v 204.000000 25.257704 -25.000731
v 196.000000 25.257704 -25.000731
v 0.000000 204.000000 0.000000
v 0.000000 196.000000 0.000000
v 0.000000 204.000000 24.242598
v 0.000000 196.000000 24.242598
v 0.000000 204.000000 -25.000000
v 0.000000 196.000000 -25.000000
v 25.000000 196.000000 0.000000
v 25.000000 196.000000 24.242598
v 25.000000 196.000000 -25.000000
v 25.000000 204.000000 0.000000
v 25.000000 204.000000 24.242598
v 25.000000 204.000000 -25.000000
v -24.991396 204.000000 0.000000
v -24.991396 204.000000 24.242598
v -24.991396 204.000000 -25.000000
v -24.991396 196.000000 0.000000
v -24.991396 196.000000 24.242598
v -24.991396 196.000000 -25.000000
v 0.000000 -0.000000 -196.000000
v 0.000000 0.000000 -204.000000
v -25.000000 -0.000000 -196.000000
v -25.000000 0.000000 -204.000000
v 25.000000 0.000000 -204.000000
v 25.000000 -0.000000 -196.000000
v 0.000000 -25.000000 -196.000000
v 0.000000 -25.000000 -204.000000
v -25.000000 -25.000000 -196.000000
v -25.000000 -25.000000 -204.000000
v 25.000000 -25.000000 -204.000000
v 25.000000 -25.000000 -196.000000
v 0.000000 25.328720 -196.000000
v 0.000000 25.328720 -204.000000
v -25.000000 25.328720 -196.000000
v -25.000000 25.328720 -204.000000
v 25.000000 25.328720 -204.000000
v 25.000000 25.328720 -196.000000
v 0.000000 -0.000000 204.000000
v 0.000000 0.000000 196.000000
v 25.000000 0.000000 196.000000
v 25.000000 -0.000000 204.000000
v -25.000000 -0.000000 204.000000
v -25.000000 0.000000 196.000000
v 0.000000 -25.000000 204.000000
v 0.000000 -25.000000 196.000000
v 25.000000 -25.000000 196.000000
v 25.000000 -25.000000 204.000000
v -25.000000 -25.000000 204.000000
v -25.000000 -25.000000 196.000000
v 0.000000 25.000000 196.000000
v 0.000000 25.000000 204.000000
v 25.000000 25.000000 196.000000
v 25.000000 25.000000 204.000000
v -25.000000 25.000000 204.000000
v -25.000000 25.000000 196.000000
vt 0.625000 0.000000
vt 0.375000 0.250000
vt 0.375000 0.000000
vt 0.625000 0.250000
vt 0.375000 0.500000
vt 0.625000 0.500000
vt 0.375000 0.750000
vt 0.625000 0.750000
vt 0.375000 1.000000
vt 0.125000 0.750000
vt 0.125000 0.500000
vt 0.875000 0.500000
vt 0.250000 0.594825
vt 0.218757 0.625000
vt 0.218757 0.594825
vt 0.750000 0.594825
vt 0.718750 0.625000
vt 0.718750 0.594825
vt 0.750000 0.625000
vt 0.718750 0.657623
vt 0.250000 0.625000
vt 0.218757 0.657623
vt 0.781243 0.625000
vt 0.750000 0.657623
vt 0.781243 0.594825
vt 0.281250 0.594825
vt 0.281250 0.625000
vt 0.250000 0.657623
vt 0.000000 0.000000
vt 0.000000 0.000000
vt 0.000000 0.000000
vt 0.000000 0.000000
vt 0.000000 0.000000
vt 0.000000 0.000000
vt 0.000000 0.000000
vt 0.250000 0.593706
vt 0.218750 0.624941
vt 0.218750 0.593706
vt 0.750000 0.593706
vt 0.718750 0.624941
vt 0.718750 0.593706
vt 0.750000 0.624941
vt 0.718750 0.656206
vt 0.250000 0.624941
vt 0.218750 0.656206
vt 0.781250 0.624941
vt 0.750000 0.656206
vt 0.781250 0.593706
vt 0.281250 0.624941
vt 0.250000 0.656206
vt 0.281250 0.593706
vt 0.000000 0.000000
vt 0.000000 0.000000
vt 0.000000 0.000000
vt 0.000000 0.000000
vt 0.000000 0.000000
vt 0.000000 0.000000
vt 0.000000 0.000000
vt 0.000000 0.000000
vt 0.250000 0.593749
vt 0.218428 0.625000
vt 0.218428 0.593749
vt 0.750000 0.593749
vt 0.718750 0.625000
vt 0.718750 0.593749
vt 0.281250 0.593749
vt 0.250000 0.625000
vt 0.281250 0.625000
vt 0.250000 0.655891
vt 0.750000 0.625000
vt 0.718750 0.655891
vt 0.218428 0.655891
vt 0.781572 0.625000
vt 0.750000 0.655891
vt 0.781572 0.593749
vt 0.000000 0.000000
vt 0.000000 0.000000
vt 0.000000 0.000000
vt 0.000000 0.000000
vt 0.000000 0.000000
vt 0.000000 0.000000
vt 0.000000 0.000000
vt 0.250000 0.593750
vt 0.218761 0.625000
vt 0.218761 0.593750
vt 0.750000 0.593750
vt 0.718750 0.625000
vt 0.718750 0.593750
vt 0.750000 0.625000
vt 0.718750 0.655303
vt 0.250000 0.625000
vt 0.218761 0.655303
vt 0.281250 0.593750
vt 0.281250 0.625000
vt 0.250000 0.655303
vt 0.781239 0.593750
vt 0.781239 0.625000
vt 0.750000 0.655303
vt 0.000000 0.000000
vt 0.000000 0.000000
vt 0.000000 0.000000
vt 0.000000 0.000000
vt 0.000000 0.000000
vt 0.000000 0.000000
vt 0.000000 0.000000
vt 0.000000 0.000000
vt 0.250000 0.593339
vt 0.218750 0.625000
vt 0.218750 0.593339
vt 0.750000 0.593339
vt 0.718750 0.625000
vt 0.718750 0.593339
vt 0.781250 0.593339
vt 0.750000 0.625000
vt 0.281250 0.593339
vt 0.250000 0.625000
vt 0.281250 0.625000
vt 0.250000 0.656250
vt 0.781250 0.625000
vt 0.750000 0.656250
vt 0.718750 0.656250
vt 0.218750 0.656250
vt 0.000000 0.000000
vt 0.000000 0.000000
vt 0.000000 0.000000
vt 0.000000 0.000000
vt 0.000000 0.000000
vt 0.000000 0.000000
vt 0.000000 0.000000
vt 0.000000 0.000000
vt 0.250000 0.593750
vt 0.218750 0.625000
vt 0.218750 0.593750
vt 0.750000 0.593750
vt 0.718750 0.625000
vt 0.718750 0.593750
vt 0.281250 0.593750
vt 0.250000 0.625000
vt 0.781250 0.593750
vt 0.750000 0.625000
vt 0.718750 0.656250
vt 0.218750 0.656250
vt 0.281250 0.625000
vt 0.250000 0.656250
vt 0.781250 0.625000
vt 0.750000 0.656250
vt 0.000000 0.000000
vt 0.000000 0.000000
vt 0.000000 0.000000
vt 0.000000 0.000000
vt 0.000000 0.000000
vt 0.000000 0.000000
vt 0.000000 0.000000
vt 0.000000 0.000000
vt 0.625000 1.000000
vt 0.875000 0.750000
vt 0.781243 0.657623
vt 0.281250 0.657623
vt 0.000000 0.000000
vt 0.781250 0.656206
vt 0.281250 0.656206
vt 0.281250 0.655891
vt 0.781572 0.655891
vt 0.000000 0.000000
vt 0.281250 0.655303
vt 0.781239 0.655303
vt 0.281250 0.656250
vt 0.781250 0.656250
vt 0.281250 0.656250
vt 0.781250 0.656250
vn -1.0000 0.0000 0.0000
vn 0.0000 0.0000 -1.0000
vn 1.0000 0.0000 0.0000
vn 0.0000 0.0000 1.0000
vn 0.0000 -1.0000 0.0000
vn 0.0000 1.0000 0.0000
usemtl None
s off
f 2/1/1 3/2/1 1/3/1
f 4/4/2 7/5/2 3/2/2
f 8/6/3 5/7/3 7/5/3
f 6/8/4 1/9/4 5/7/4
f 7/5/5 1/10/5 3/11/5
f 4/12/6 6/8/6 8/6/6
f 13/13/1 16/14/1 20/15/1
f 14/16/3 24/17/3 26/18/3
f 9/19/3 25/20/3 24/17/3
f 10/21/1 18/22/1 16/14/1
f 15/23/3 11/24/3 9/19/3
f 19/25/3 9/19/3 14/16/3
f 23/26/1 10/21/1 13/13/1
f 21/27/1 12/28/1 10/21/1
f 17/29/6 20/30/6 18/31/6
f 18/31/4 25/32/4 17/29/4
f 19/33/2 23/34/2 20/30/2
f 23/34/5 25/32/5 22/35/5
f 30/36/5 34/37/5 36/38/5
f 29/39/6 40/40/6 42/41/6
f 27/42/6 44/43/6 40/40/6
f 28/44/5 38/45/5 34/37/5
f 33/46/6 31/47/6 27/42/6
f 35/48/6 27/42/6 29/39/6
f 39/49/5 32/50/5 28/44/5
f 41/51/5 28/44/5 30/36/5
f 35/52/3 38/53/3 36/54/3
f 37/55/2 43/56/2 38/53/2
f 41/57/1 44/58/1 42/59/1
f 41/57/4 35/52/4 36/54/4
f 53/60/1 58/61/1 62/62/1
f 54/63/3 48/64/3 56/65/3
f 55/66/1 46/67/1 53/60/1
f 47/68/1 50/69/1 46/67/1
f 45/70/3 52/71/3 48/64/3
f 46/67/1 60/72/1 58/61/1
f 57/73/3 49/74/3 45/70/3
f 61/75/3 45/70/3 54/63/3
f 59/76/6 62/77/6 60/78/6
f 51/79/5 56/80/5 52/81/5
f 56/80/2 62/77/2 61/82/2
f 51/79/4 59/76/4 60/78/4
f 68/83/5 78/84/5 80/85/5
f 67/86/6 72/87/6 74/88/6
f 63/89/6 73/90/6 72/87/6
f 64/91/5 79/92/5 78/84/5
f 71/93/5 64/91/5 68/83/5
f 69/94/5 66/95/5 64/91/5
f 77/96/6 63/89/6 67/86/6
f 75/97/6 65/98/6 63/89/6
f 71/99/2 77/100/2 74/101/2
f 71/99/3 73/102/3 70/103/3
f 73/102/4 79/104/4 70/103/4
f 80/105/1 76/106/1 77/100/1
f 94/107/2 84/108/2 96/109/2
f 93/110/4 86/111/4 98/112/4
f 95/113/4 81/114/4 93/110/4
f 97/115/2 82/116/2 94/107/2
f 85/117/2 88/118/2 82/116/2
f 83/119/4 87/120/4 81/114/4
f 81/114/4 92/121/4 86/111/4
f 82/116/2 90/122/2 84/108/2
f 95/123/6 97/124/6 96/125/6
f 89/126/1 96/125/1 90/127/1
f 90/127/5 92/128/5 89/126/5
f 98/129/3 91/130/3 97/124/3
f 111/131/2 104/132/2 116/133/2
f 112/134/4 102/135/4 114/136/4
f 113/137/2 100/138/2 111/131/2
f 115/139/4 99/140/4 112/134/4
f 99/140/4 108/141/4 102/135/4
f 100/138/2 110/142/2 104/132/2
f 101/143/2 106/144/2 100/138/2
f 103/145/4 105/146/4 99/140/4
f 113/147/6 115/148/6 114/149/6
f 107/150/3 114/149/3 108/151/3
f 109/152/1 116/153/1 110/154/1
f 109/152/5 107/150/5 108/151/5
f 2/1/1 4/4/1 3/2/1
f 4/4/2 8/6/2 7/5/2
f 8/6/3 6/8/3 5/7/3
f 6/8/4 2/155/4 1/9/4
f 7/5/5 5/7/5 1/10/5
f 4/12/6 2/156/6 6/8/6
f 13/13/1 10/21/1 16/14/1
f 14/16/3 9/19/3 24/17/3
f 9/19/3 11/24/3 25/20/3
f 10/21/1 12/28/1 18/22/1
f 15/23/3 17/157/3 11/24/3
f 19/25/3 15/23/3 9/19/3
f 23/26/1 21/27/1 10/21/1
f 21/27/1 22/158/1 12/28/1
f 17/29/6 19/33/6 20/30/6
f 18/31/4 22/35/4 25/32/4
f 19/33/2 26/159/2 23/34/2
f 23/34/5 26/159/5 25/32/5
f 30/36/5 28/44/5 34/37/5
f 29/39/6 27/42/6 40/40/6
f 27/42/6 31/47/6 44/43/6
f 28/44/5 32/50/5 38/45/5
f 33/46/6 37/160/6 31/47/6
f 35/48/6 33/46/6 27/42/6
f 39/49/5 43/161/5 32/50/5
f 41/51/5 39/49/5 28/44/5
f 35/52/3 37/55/3 38/53/3
f 37/55/2 44/58/2 43/56/2
f 41/57/1 43/56/1 44/58/1
f 41/57/4 42/59/4 35/52/4
f 53/60/1 46/67/1 58/61/1
f 54/63/3 45/70/3 48/64/3
f 55/66/1 47/68/1 46/67/1
f 47/68/1 51/162/1 50/69/1
f 45/70/3 49/74/3 52/71/3
f 46/67/1 50/69/1 60/72/1
f 57/73/3 59/163/3 49/74/3
f 61/75/3 57/73/3 45/70/3
f 59/76/6 61/82/6 62/77/6
f 51/79/5 55/164/5 56/80/5
f 56/80/2 55/164/2 62/77/2
f 51/79/4 52/81/4 59/76/4
f 68/83/5 64/91/5 78/84/5
f 67/86/6 63/89/6 72/87/6
f 63/89/6 65/98/6 73/90/6
f 64/91/5 66/95/5 79/92/5
f 71/93/5 69/94/5 64/91/5
f 69/94/5 70/165/5 66/95/5
f 77/96/6 75/97/6 63/89/6
f 75/97/6 76/166/6 65/98/6
f 71/99/2 80/105/2 77/100/2
f 71/99/3 74/101/3 73/102/3
f 73/102/4 76/106/4 79/104/4
f 80/105/1 79/104/1 76/106/1
f 94/107/2 82/116/2 84/108/2
f 93/110/4 81/114/4 86/111/4
f 95/113/4 83/119/4 81/114/4
f 97/115/2 85/117/2 82/116/2
f 85/117/2 91/167/2 88/118/2
f 83/119/4 89/168/4 87/120/4
f 81/114/4 87/120/4 92/121/4
f 82/116/2 88/118/2 90/122/2
f 95/123/6 98/129/6 97/124/6
f 89/126/1 95/123/1 96/125/1
f 90/127/5 91/130/5 92/128/5
f 98/129/3 92/128/3 91/130/3
f 111/131/2 100/138/2 104/132/2
f 112/134/4 99/140/4 102/135/4
f 113/137/2 101/143/2 100/138/2
f 115/139/4 103/145/4 99/140/4
f 99/140/4 105/146/4 108/141/4
f 100/138/2 106/144/2 110/142/2
f 101/143/2 107/169/2 106/144/2
f 103/145/4 109/170/4 105/146/4
f 113/147/6 116/153/6 115/148/6
f 107/150/3 113/147/3 114/149/3
f 109/152/1 115/148/1 116/153/1
f 109/152/5 110/154/5 107/150/5
