# Blender v2.91.2 OBJ File: 'PlayerBorad0414.blend'
# www.blender.org
mtllib PlayerBorad0414.mtl
o 立方体.006
v -31.125000 -3.750000 7.500000
v -31.125000 3.750000 7.500000
v -31.125000 -3.750000 -7.500000
v -31.125000 3.750000 -7.500000
v -28.875000 -3.750000 7.500000
v -28.875000 3.750000 7.500000
v -28.875000 -3.750000 -7.500000
v -28.875000 3.750000 -7.500000
v -31.125000 7.500000 -3.750000
v -28.875000 -7.500000 -3.750000
v -31.125000 -7.500000 -3.750000
v -28.875000 7.500000 -3.750000
v -31.125000 -7.500000 3.750000
v -28.875000 7.500000 3.750000
v -31.125000 7.500000 3.750000
v -28.875000 -7.500000 3.750000
vt 0.375000 0.687500
vt 0.125000 0.750000
vt 0.125000 0.687500
vt 0.875000 0.687500
vt 0.625000 0.750000
vt 0.625000 0.687500
vt 0.562500 0.250000
vt 0.437500 0.500000
vt 0.437500 0.250000
vt 0.875000 0.562500
vt 0.375000 0.562500
vt 0.375000 0.250000
vt 0.375000 0.062500
vt 0.625000 0.000000
vt 0.375000 0.500000
vt 0.125000 0.562500
vt 0.125000 0.500000
vt 0.875000 0.500000
vt 0.625000 0.562500
vt 0.625000 0.500000
vt 0.375000 0.750000
vt 0.562500 0.750000
vt 0.437500 1.000000
vt 0.437500 0.750000
vt 0.875000 0.750000
vt 0.562500 0.500000
vt 0.625000 0.062500
vt 0.625000 0.187500
vt 0.375000 0.187500
vt 0.437500 0.000000
vt 0.562500 1.000000
vn 0.0000 -0.7071 0.7071
vn 0.0000 0.7071 0.7071
vn 0.0000 0.0000 -1.0000
vn 0.0000 1.0000 0.0000
vn 0.0000 -1.0000 0.0000
vn -1.0000 0.0000 0.0000
vn 0.0000 -0.7071 -0.7071
vn 0.0000 0.7071 -0.7071
vn 1.0000 0.0000 0.0000
vn 0.0000 0.0000 1.0000
usemtl None
s off
f 16/1/1 1/2/1 13/3/1
f 15/4/2 6/5/2 14/6/2
f 4/7/3 7/8/3 3/9/3
f 14/6/4 9/10/4 15/4/4
f 13/3/5 10/11/5 16/1/5
f 3/12/6 13/13/6 2/14/6
f 7/15/7 11/16/7 3/17/7
f 4/18/8 12/19/8 8/20/8
f 8/20/9 14/6/9 5/21/9
f 6/22/10 1/23/10 5/24/10
f 16/1/1 5/21/1 1/2/1
f 15/4/2 2/25/2 6/5/2
f 4/7/3 8/26/3 7/8/3
f 14/6/4 12/19/4 9/10/4
f 13/3/5 11/16/5 10/11/5
f 2/14/6 15/27/6 9/28/6
f 9/28/6 4/7/6 3/12/6
f 3/12/6 11/29/6 13/13/6
f 13/13/6 1/30/6 2/14/6
f 2/14/6 9/28/6 3/12/6
f 7/15/7 10/11/7 11/16/7
f 4/18/8 9/10/8 12/19/8
f 5/21/9 16/1/9 10/11/9
f 10/11/9 7/8/9 8/20/9
f 8/20/9 12/19/9 14/6/9
f 14/6/9 6/22/9 5/21/9
f 5/21/9 10/11/9 8/20/9
f 6/22/10 2/31/10 1/23/10
