# Blender v2.90.1 OBJ File: 'STAGE(2)_Edit_OF.blend'
# www.blender.org
mtllib STAGE(2)_Edit_OF_0102.mtl
o 立方体
v -0.001000 -0.001000 0.001000
v -0.001000 0.001000 0.001000
v -0.001000 -0.001000 -0.001000
v -0.001000 0.001000 -0.001000
v 0.001000 -0.001000 0.001000
v 0.001000 0.001000 0.001000
v 0.001000 -0.001000 -0.001000
v 0.001000 0.001000 -0.001000
v 19.999998 19.999998 18.999998
v 19.999998 -19.999998 18.999998
v 19.999998 19.999998 19.999998
v 19.999998 -19.999998 19.999998
v -19.999998 19.999998 18.999998
v -19.999998 -19.999998 18.999998
v -19.999998 19.999998 19.999998
v -19.999998 -19.999998 19.999998
v 19.999996 21.500000 -20.667253
v -19.999998 21.500000 -20.667253
v 19.999996 17.499998 -20.667253
v -19.999998 17.499998 -20.667253
v 19.999998 21.499996 19.332748
v -19.999996 21.499996 19.332748
v 19.999998 17.499998 19.332748
v -19.999996 17.499998 19.332748
v -19.999996 21.499996 14.332750
v 19.999998 17.499998 14.332748
v -19.999996 17.499998 14.332750
v 19.999998 21.499996 14.332748
v -19.999998 17.499998 -15.667249
v -19.999998 21.500000 -15.667249
v 19.999996 17.499998 -15.667253
v 14.999999 17.499998 19.332748
v 14.999997 21.500000 -20.667253
v 14.999997 17.499998 -20.667253
v 14.999999 21.499996 14.332748
v 14.999999 21.499996 14.332748
v 14.999998 21.499996 4.332749
v 14.999998 21.499996 4.332749
v 14.999998 21.499996 -5.667250
v 14.999998 21.499996 -5.667250
v 14.999997 21.500000 -15.667253
v 14.999997 21.500000 -15.667253
v 4.935644 21.499996 14.332748
v 4.935644 21.499996 14.332748
v 4.935643 21.499996 4.332749
v 4.935643 21.499996 4.332749
v 4.935643 21.499996 -5.667250
v 4.935643 21.499996 -5.667250
v 4.935642 21.500000 -15.667253
v 4.935642 21.500000 -15.667253
v -4.971731 21.499996 14.332748
v -4.971731 21.499996 14.332748
v -4.971731 21.499996 4.332749
v -4.971731 21.499996 4.332749
v -4.971732 21.499996 -5.667250
v -4.971732 21.499996 -5.667250
v -4.971732 21.500000 -15.667253
v -4.971732 21.500000 -15.667253
v -15.011427 17.499998 -20.667253
v -15.011424 21.499996 14.332750
v -15.011424 21.499996 14.332750
v -15.011426 21.499996 4.332749
v -15.011426 21.499996 4.332749
v -15.011426 21.499996 -5.667250
v -15.011426 21.499996 -5.667250
v -15.011427 21.500000 -15.667249
v -15.011427 21.500000 -15.667249
v -15.011424 17.499998 19.332748
v 19.999996 -21.499994 -20.667253
v 19.999996 -21.500000 19.332745
v 19.999996 -17.499996 -20.667253
v 19.999996 -17.500000 19.332745
v -19.999996 -21.499994 -20.667253
v -19.999996 -21.500000 19.332745
v -19.999996 -17.499996 -20.667253
v -19.999996 -17.500000 19.332745
v -14.999998 -21.500000 19.332745
v -14.999998 -17.499996 -20.667253
v -14.999998 -17.500000 19.332745
v -14.999998 -21.499994 -20.667253
v 14.999998 -17.500000 19.332745
v 14.999998 -21.500000 19.332745
v 14.999998 -17.499996 -20.667253
v -19.999996 -17.499996 -15.667253
v 19.999996 -21.499994 -15.667253
v 19.999996 -17.499996 -15.667253
v -14.999998 -21.499994 -15.667253
v -14.999998 -21.499994 -15.667253
v -4.999999 -21.499994 -15.667253
v -4.999999 -21.499994 -15.667253
v 4.999999 -21.499994 -15.667253
v 4.999999 -21.499994 -15.667253
v 14.999998 -21.499994 -15.667253
v 14.999998 -21.499994 -15.667253
v -14.999998 -21.499996 -5.602899
v -14.999998 -21.499996 -5.602899
v -4.999999 -21.499996 -5.602899
v -4.999999 -21.499996 -5.602899
v 4.999999 -21.499996 -5.602899
v 4.999999 -21.499996 -5.602899
v 14.999998 -21.499996 -5.602899
v 14.999998 -21.499996 -5.602899
v -14.999998 -21.500000 4.304479
v -14.999998 -21.500000 4.304479
v -4.999999 -21.500000 4.304479
v -4.999999 -21.500000 4.304479
v 4.999999 -21.500000 4.304479
v 4.999999 -21.500000 4.304479
v 14.999998 -21.500000 4.304479
v 14.999998 -21.500000 4.304479
v 19.999996 -17.500000 14.344173
v -14.999998 -21.500000 14.344172
v -14.999998 -21.500000 14.344172
v -4.999999 -21.500000 14.344172
v -4.999999 -21.500000 14.344172
v 4.999999 -21.500000 14.344172
v 4.999999 -21.500000 14.344172
v 14.999998 -21.500000 14.344172
v 14.999998 -21.500000 14.344172
v -19.999996 -17.500000 14.344173
v -21.500000 19.999996 19.332747
v -21.500000 19.999998 -20.667253
v -17.499998 19.999996 19.332747
v -17.499998 19.999998 -20.667253
v -21.499996 -19.999996 19.332747
v -21.499996 -19.999994 -20.667253
v -17.499998 -19.999996 19.332747
v -17.499998 -19.999994 -20.667253
v -21.499996 -14.999996 -20.667253
v -17.499998 -14.999998 19.332747
v -17.499998 -14.999996 -20.667253
v -21.499996 -14.999998 19.332747
v -17.499998 15.000001 -20.667253
v -21.500000 15.000001 -20.667253
v -17.499998 14.999998 19.332747
v -17.499998 -19.999996 14.332747
v -21.500000 19.999996 14.332748
v -17.499998 19.999996 14.332748
v -21.499996 -14.999998 14.332747
v -21.499996 -14.999998 14.332747
v -21.499996 -4.999999 14.332747
v -21.499996 -4.999999 14.332747
v -21.499996 5.000000 14.332747
v -21.499996 5.000000 14.332747
v -21.500000 14.999998 14.332748
v -21.500000 14.999998 14.332748
v -21.499996 -14.999997 4.268391
v -21.499996 -14.999997 4.268391
v -21.499996 -4.999999 4.268392
v -21.499996 -4.999999 4.268392
v -21.499996 5.000000 4.268392
v -21.499996 5.000000 4.268392
v -21.500000 14.999999 4.268392
v -21.500000 14.999999 4.268392
v -21.499996 -14.999997 -5.638985
v -21.499996 -14.999997 -5.638985
v -21.499996 -4.999998 -5.638985
v -21.499996 -4.999998 -5.638985
v -21.499996 5.000000 -5.638985
v -21.499996 5.000000 -5.638985
v -21.500000 14.999999 -5.638983
v -21.500000 14.999999 -5.638983
v -17.499998 19.999998 -15.678677
v -21.499996 -14.999996 -15.678680
v -21.499996 -14.999996 -15.678680
v -21.499996 -4.999998 -15.678680
v -21.499996 -4.999998 -15.678680
v -21.499996 5.000001 -15.678680
v -21.499996 5.000001 -15.678680
v -21.500000 15.000001 -15.678677
v -21.500000 15.000001 -15.678677
v -17.499998 -19.999994 -15.678680
v 21.499994 -19.999994 -20.667253
v 21.499996 19.999998 -20.667253
v 17.499996 -19.999994 -20.667253
v 17.499998 19.999998 -20.667253
v 21.499996 -19.999996 19.332747
v 21.500000 19.999996 19.332747
v 17.499998 -19.999996 19.332747
v 17.499998 19.999996 19.332747
v 21.500000 19.999998 14.332748
v 17.499998 -19.999996 14.332747
v 17.499998 19.999998 14.332748
v 21.499996 -19.999996 14.332747
v 17.499998 19.999998 -15.667253
v 21.499996 19.999998 -15.667253
v 17.499996 -19.999994 -15.667253
v 17.499998 -14.999998 19.332747
v 21.499996 -14.999996 -20.667253
v 17.499996 -14.999996 -20.667253
v 21.499996 -14.999997 14.332747
v 21.499996 -14.999997 14.332747
v 21.499996 -14.999997 4.332747
v 21.499996 -14.999997 4.332747
v 21.499996 -14.999997 -5.667252
v 21.499996 -14.999997 -5.667252
v 21.499996 -14.999996 -15.667253
v 21.499996 -14.999996 -15.667253
v 21.499996 -4.935643 14.332747
v 21.499996 -4.935643 14.332747
v 21.499996 -4.935642 4.332747
v 21.499996 -4.935642 4.332747
v 21.499996 -4.935642 -5.667252
v 21.499996 -4.935642 -5.667252
v 21.499996 -4.935642 -15.667253
v 21.499996 -4.935642 -15.667253
v 21.500000 4.971732 14.332747
v 21.500000 4.971732 14.332747
v 21.499996 4.971733 4.332747
v 21.499996 4.971733 4.332747
v 21.499996 4.971733 -5.667252
v 21.499996 4.971733 -5.667252
v 21.499996 4.971733 -15.667253
v 21.499996 4.971733 -15.667253
v 17.499998 15.011428 -20.667253
v 21.500000 15.011427 14.332748
v 21.500000 15.011427 14.332748
v 21.500000 15.011427 4.332747
v 21.500000 15.011427 4.332747
v 21.499996 15.011427 -5.667252
v 21.499996 15.011427 -5.667252
v 21.499996 15.011428 -15.667253
v 21.499996 15.011428 -15.667253
v 17.499998 15.011426 19.332747
v 19.999996 19.999998 -20.999998
v 19.999996 -19.999996 -20.999998
v 19.999996 19.999998 -19.999998
v 19.999996 -19.999996 -19.999998
v -19.999996 19.999998 -20.999998
v -19.999996 -19.999996 -20.999998
v -19.999996 19.999998 -19.999998
v -19.999996 -19.999996 -19.999998
vt 0.375000 0.000000
vt 0.625000 0.000000
vt 0.625000 0.250000
vt 0.375000 0.250000
vt 0.625000 0.500000
vt 0.375000 0.500000
vt 0.625000 0.750000
vt 0.375000 0.750000
vt 0.625000 1.000000
vt 0.375000 1.000000
vt 0.125000 0.500000
vt 0.125000 0.750000
vt 0.875000 0.500000
vt 0.875000 0.750000
vt 0.000000 0.000000
vt 0.000000 0.000000
vt 0.000000 0.000000
vt 0.000000 0.000000
vt 0.000000 0.000000
vt 0.000000 0.000000
vt 0.000000 0.000000
vt 0.000000 0.000000
vt 0.000000 0.000000
vt 0.000000 0.000000
vt 0.000000 0.000000
vt 0.000000 0.000000
vt 0.000000 0.000000
vt 0.000000 0.000000
vt 0.000000 0.000000
vt 0.000000 0.000000
vt 0.000000 0.000000
vt 0.000000 0.000000
vt 0.000000 0.000000
vt 0.000000 0.000000
vt 0.000000 0.000000
vt 0.000000 0.000000
vt 0.000000 0.000000
vt 0.000000 0.000000
vt 0.000000 0.000000
vt 0.000000 0.000000
vt 0.000000 0.000000
vt 0.000000 0.000000
vt 0.000000 0.000000
vt 0.000000 0.000000
vt 0.000000 0.000000
vt 0.000000 0.000000
vt 0.000000 0.000000
vt 0.000000 0.000000
vt 0.000000 0.000000
vt 0.000000 0.000000
vt 0.000000 0.000000
vt 0.000000 0.000000
vt 0.000000 0.000000
vt 0.000000 0.000000
vt 0.000000 0.000000
vt 0.000000 0.000000
vt 0.000000 0.000000
vt 0.000000 0.000000
vt 0.000000 0.000000
vt 0.000000 0.000000
vt 0.000000 0.000000
vt 0.000000 0.000000
vt 0.000000 0.000000
vt 0.000000 0.000000
vt 0.000000 0.000000
vt 0.000000 0.000000
vt 0.000000 0.000000
vt 0.000000 0.000000
vt 0.000000 0.000000
vt 0.000000 0.000000
vt 0.000000 0.000000
vt 0.000000 0.000000
vt 0.000000 0.000000
vt 0.000000 0.000000
vt 0.000000 0.000000
vt 0.000000 0.000000
vt 0.000000 0.000000
vt 0.000000 0.000000
vt 0.000000 0.000000
vt 0.000000 0.000000
vt 0.000000 0.000000
vt 0.000000 0.000000
vt 0.000000 0.000000
vt 0.000000 0.000000
vt 0.000000 0.000000
vt 0.000000 0.000000
vt 0.000000 0.000000
vt 0.000000 0.000000
vt 0.000000 0.000000
vt 0.000000 0.000000
vt 0.000000 0.000000
vt 0.000000 0.000000
vt 0.000000 0.000000
vt 0.000000 0.000000
vt 0.000000 0.000000
vt 0.000000 0.000000
vt 0.000000 0.000000
vt 0.000000 0.000000
vt 0.000000 0.000000
vt 0.000000 0.000000
vt 0.000000 0.000000
vt 0.000000 0.000000
vt 0.000000 0.000000
vt 0.000000 0.000000
vt 0.000000 0.000000
vt 0.000000 0.000000
vt 0.000000 0.000000
vt 0.000000 0.000000
vt 0.000000 0.000000
vt 0.000000 0.000000
vt 0.000000 0.000000
vt 0.000000 0.000000
vt 0.000000 0.000000
vt 0.000000 0.000000
vt 0.000000 0.000000
vt 0.000000 0.000000
vt 0.000000 0.000000
vt 0.000000 0.000000
vt 0.000000 0.000000
vt 0.000000 0.000000
vt 0.000000 0.000000
vt 0.000000 0.000000
vt 0.000000 0.000000
vt 0.000000 0.000000
vt 0.000000 0.000000
vt 0.000000 0.000000
vt 0.000000 0.000000
vt 0.000000 0.000000
vt 0.000000 0.000000
vt 0.000000 0.000000
vt 0.000000 0.000000
vt 0.000000 0.000000
vt 0.000000 0.000000
vt 0.000000 0.000000
vt 0.000000 0.000000
vt 0.000000 0.000000
vt 0.000000 0.000000
vt 0.000000 0.000000
vt 0.000000 0.000000
vt 0.000000 0.000000
vt 0.000000 0.000000
vt 0.000000 0.000000
vt 0.000000 0.000000
vt 0.000000 0.000000
vt 0.000000 0.000000
vt 0.000000 0.000000
vt 0.000000 0.000000
vt 0.000000 0.000000
vt 0.000000 0.000000
vt 0.000000 0.000000
vt 0.000000 0.000000
vt 0.000000 0.000000
vt 0.000000 0.000000
vt 0.000000 0.000000
vt 0.000000 0.000000
vt 0.000000 0.000000
vt 0.000000 0.000000
vt 0.000000 0.000000
vt 0.000000 0.000000
vt 0.000000 0.000000
vt 0.000000 0.000000
vt 0.000000 0.000000
vt 0.000000 0.000000
vt 0.000000 0.000000
vt 0.000000 0.000000
vt 0.000000 0.000000
vt 0.000000 0.000000
vt 0.000000 0.000000
vt 0.000000 0.000000
vt 0.000000 0.000000
vt 0.000000 0.000000
vt 0.000000 0.000000
vt 0.000000 0.000000
vt 0.000000 0.000000
vt 0.000000 0.000000
vt 0.000000 0.000000
vt 0.000000 0.000000
vt 0.000000 0.000000
vt 0.000000 0.000000
vt 0.000000 0.000000
vt 0.000000 0.000000
vt 0.000000 0.000000
vt 0.000000 0.000000
vt 0.000000 0.000000
vt 0.000000 0.000000
vt 0.000000 0.000000
vt 0.000000 0.000000
vt 0.000000 0.000000
vt 0.000000 0.000000
vt 0.000000 0.000000
vt 0.000000 0.000000
vt 0.000000 0.000000
vt 0.000000 0.000000
vt 0.000000 0.000000
vt 0.000000 0.000000
vt 0.000000 0.000000
vt 0.000000 0.000000
vt 0.000000 0.000000
vt 0.000000 0.000000
vt 0.000000 0.000000
vt 0.000000 0.000000
vt 0.000000 0.000000
vt 0.000000 0.000000
vt 0.000000 0.000000
vt 0.000000 0.000000
vt 0.000000 0.000000
vt 0.000000 0.000000
vt 0.000000 0.000000
vt 0.000000 0.000000
vt 0.000000 0.000000
vt 0.000000 0.000000
vt 0.000000 0.000000
vt 0.000000 0.000000
vt 0.000000 0.000000
vt 0.000000 0.000000
vt 0.000000 0.000000
vt 0.000000 0.000000
vt 0.000000 0.000000
vt 0.000000 0.000000
vt 0.000000 0.000000
vt 0.000000 0.000000
vt 0.000000 0.000000
vt 0.000000 0.000000
vt 0.000000 0.000000
vt 0.000000 0.000000
vt 0.000000 0.000000
vt 0.000000 0.000000
vt 0.000000 0.000000
vt 0.000000 0.000000
vt 0.000000 0.000000
vt 0.000000 0.000000
vt 0.000000 0.000000
vt 0.000000 0.000000
vt 0.000000 0.000000
vt 0.000000 0.000000
vt 0.000000 0.000000
vt 0.000000 0.000000
vt 0.000000 0.000000
vn -1.0000 0.0000 0.0000
vn 0.0000 0.0000 -1.0000
vn 1.0000 0.0000 0.0000
vn 0.0000 0.0000 1.0000
vn 0.0000 -1.0000 0.0000
vn 0.0000 1.0000 0.0000
vn -0.3482 -0.8704 -0.3482
vn -0.6247 -0.7809 -0.0000
vn -0.3482 -0.8704 0.3482
vn 0.0000 -0.7809 -0.6247
vn 0.0000 -0.7809 0.6247
vn 0.3489 -0.8701 0.3481
vn 0.6256 -0.7802 -0.0000
vn 0.3489 -0.8701 -0.3481
vn 0.3482 0.8704 0.3482
vn 0.0000 0.7809 0.6247
vn -0.3482 0.8704 0.3482
vn 0.6247 0.7809 0.0000
vn -0.6247 0.7809 0.0000
vn -0.3481 0.8701 -0.3489
vn 0.0000 0.7802 -0.6256
vn 0.3481 0.8701 -0.3489
vn 0.8704 0.3482 -0.3482
vn 0.7809 0.0000 -0.6247
vn 0.8704 -0.3482 -0.3482
vn 0.7809 0.6247 0.0000
vn 0.7809 -0.6247 -0.0000
vn 0.8701 -0.3481 0.3489
vn 0.7802 0.0000 0.6256
vn 0.8701 0.3481 0.3489
vn -0.8704 0.3482 -0.3482
vn -0.7809 0.6247 0.0000
vn -0.8704 0.3482 0.3482
vn -0.7809 0.0000 -0.6247
vn -0.7809 0.0000 0.6247
vn -0.8701 -0.3489 0.3481
vn -0.7802 -0.6256 0.0000
vn -0.8701 -0.3489 -0.3481
usemtl Material.015
s off
f 1/1/1 2/2/1 4/3/1 3/4/1
f 3/4/2 4/3/2 8/5/2 7/6/2
f 7/6/3 8/5/3 6/7/3 5/8/3
f 5/8/4 6/7/4 2/9/4 1/10/4
f 3/11/5 7/6/5 5/8/5 1/12/5
f 8/5/6 4/13/6 2/14/6 6/7/6
f 13/15/6 15/16/6 11/17/6 9/18/6
f 15/16/1 13/15/1 14/19/1 16/20/1
f 9/18/3 11/17/3 12/21/3 10/22/3
f 10/22/5 12/21/5 16/20/5 14/19/5
f 11/17/4 15/16/4 16/20/4 12/21/4
f 10/22/2 14/19/2 13/15/2 9/18/2
usemtl Material.008
f 28/23/3 21/24/3 23/25/3 26/26/3 31/27/3 19/28/3 17/29/3
f 36/30/7 26/26/7 23/25/7 32/31/7
f 68/32/4 32/31/4 23/25/4 21/24/4 22/33/4 24/34/4
f 33/35/2 17/29/2 19/28/2 34/36/2 59/37/2 20/38/2 18/39/2
f 21/24/6 28/23/6 35/40/6 43/41/6 51/42/6 60/43/6 25/44/6 22/33/6
f 30/45/1 18/39/1 20/38/1 29/46/1 27/47/1 24/34/1 22/33/1 25/44/1
f 31/27/8 26/26/8 36/30/8 37/48/8 40/49/8 41/50/8
f 34/36/9 19/28/9 31/27/9 41/50/9
f 49/51/5 48/52/5 45/53/5 44/54/5 52/55/5 53/56/5 56/57/5 57/58/5
f 47/59/6 50/60/6 58/61/6 55/62/6 54/63/6 51/42/6 43/41/6 46/64/6
f 40/49/5 37/48/5 45/53/5 48/52/5
f 58/61/6 50/60/6 42/65/6 33/35/6 18/39/6 30/45/6 67/66/6
f 38/67/6 39/68/6 47/59/6 46/64/6
f 52/55/10 44/54/10 36/30/10 32/31/10 68/32/10 61/69/10
f 54/63/6 55/62/6 64/70/6 63/71/6
f 56/57/5 53/56/5 62/72/5 65/73/5
f 34/36/11 41/50/11 49/51/11 57/58/11 66/74/11 59/37/11
f 64/70/6 67/66/6 30/45/6 25/44/6 60/43/6 63/71/6
f 20/38/12 59/37/12 66/74/12 29/46/12
f 29/46/13 66/74/13 65/73/13 62/72/13 61/69/13 27/47/13
f 27/47/14 61/69/14 68/32/14 24/34/14
f 28/23/6 17/29/6 33/35/6 42/65/6 39/68/6 38/67/6 35/40/6
usemtl Material.011
f 80/75/2 73/76/2 75/77/2 78/78/2 83/79/2 71/80/2 69/81/2
f 88/82/15 78/78/15 75/77/15 84/83/15
f 120/84/1 84/83/1 75/77/1 73/76/1 74/85/1 76/86/1
f 85/87/3 69/81/3 71/80/3 86/88/3 111/89/3 72/90/3 70/91/3
f 73/76/5 80/75/5 87/92/5 95/93/5 103/94/5 112/95/5 77/96/5 74/85/5
f 82/97/4 70/91/4 72/90/4 81/98/4 79/99/4 76/86/4 74/85/4 77/96/4
f 83/79/16 78/78/16 88/82/16 89/100/16 92/101/16 93/102/16
f 86/88/17 71/80/17 83/79/17 93/102/17
f 101/103/6 100/104/6 97/105/6 96/106/6 104/107/6 105/108/6 108/109/6 109/110/6
f 99/111/5 102/112/5 110/113/5 107/114/5 106/115/5 103/94/5 95/93/5 98/116/5
f 92/101/6 89/100/6 97/105/6 100/104/6
f 110/113/5 102/112/5 94/117/5 85/87/5 70/91/5 82/97/5 119/118/5
f 90/119/5 91/120/5 99/111/5 98/116/5
f 104/107/18 96/106/18 88/82/18 84/83/18 120/84/18 113/121/18
f 106/115/5 107/114/5 116/122/5 115/123/5
f 108/109/6 105/108/6 114/124/6 117/125/6
f 86/88/19 93/102/19 101/103/19 109/110/19 118/126/19 111/89/19
f 116/122/5 119/118/5 82/97/5 77/96/5 112/95/5 115/123/5
f 72/90/20 111/89/20 118/126/20 81/98/20
f 81/98/21 118/126/21 117/125/21 114/124/21 113/121/21 79/99/21
f 79/99/22 113/121/22 120/84/22 76/86/22
f 80/75/5 69/81/5 85/87/5 94/117/5 91/120/5 90/119/5 87/92/5
usemtl Material.012
f 132/127/4 125/128/4 127/129/4 130/130/4 135/131/4 123/132/4 121/133/4
f 140/134/23 130/130/23 127/129/23 136/135/23
f 172/136/5 136/135/5 127/129/5 125/128/5 126/137/5 128/138/5
f 137/139/6 121/133/6 123/132/6 138/140/6 163/141/6 124/142/6 122/143/6
f 125/128/1 132/127/1 139/144/1 147/145/1 155/146/1 164/147/1 129/148/1 126/137/1
f 134/149/2 122/143/2 124/142/2 133/150/2 131/151/2 128/138/2 126/137/2 129/148/2
f 135/131/24 130/130/24 140/134/24 141/152/24 144/153/24 145/154/24
f 138/140/25 123/132/25 135/131/25 145/154/25
f 153/155/3 152/156/3 149/157/3 148/158/3 156/159/3 157/160/3 160/161/3 161/162/3
f 151/163/1 154/164/1 162/165/1 159/166/1 158/167/1 155/146/1 147/145/1 150/168/1
f 144/153/3 141/152/3 149/157/3 152/156/3
f 162/165/1 154/164/1 146/169/1 137/139/1 122/143/1 134/149/1 171/170/1
f 142/171/1 143/172/1 151/163/1 150/168/1
f 156/159/26 148/158/26 140/134/26 136/135/26 172/136/26 165/173/26
f 158/167/1 159/166/1 168/174/1 167/175/1
f 160/161/3 157/160/3 166/176/3 169/177/3
f 138/140/27 145/154/27 153/155/27 161/162/27 170/178/27 163/141/27
f 168/174/1 171/170/1 134/149/1 129/148/1 164/147/1 167/175/1
f 124/142/28 163/141/28 170/178/28 133/150/28
f 133/150/29 170/178/29 169/177/29 166/176/29 165/173/29 131/151/29
f 131/151/30 165/173/30 172/136/30 128/138/30
f 132/127/1 121/133/1 137/139/1 146/169/1 143/172/1 142/171/1 139/144/1
usemtl Material.013
f 184/179/5 177/180/5 179/181/5 182/182/5 187/183/5 175/184/5 173/185/5
f 192/186/31 182/182/31 179/181/31 188/187/31
f 224/188/4 188/187/4 179/181/4 177/180/4 178/189/4 180/190/4
f 189/191/2 173/185/2 175/184/2 190/192/2 215/193/2 176/194/2 174/195/2
f 177/180/3 184/179/3 191/196/3 199/197/3 207/198/3 216/199/3 181/200/3 178/189/3
f 186/201/6 174/195/6 176/194/6 185/202/6 183/203/6 180/190/6 178/189/6 181/200/6
f 187/183/32 182/182/32 192/186/32 193/204/32 196/205/32 197/206/32
f 190/192/33 175/184/33 187/183/33 197/206/33
f 205/207/1 204/208/1 201/209/1 200/210/1 208/211/1 209/212/1 212/213/1 213/214/1
f 203/215/3 206/216/3 214/217/3 211/218/3 210/219/3 207/198/3 199/197/3 202/220/3
f 196/205/1 193/204/1 201/209/1 204/208/1
f 214/217/3 206/216/3 198/221/3 189/191/3 174/195/3 186/201/3 223/222/3
f 194/223/3 195/224/3 203/215/3 202/220/3
f 208/211/34 200/210/34 192/186/34 188/187/34 224/188/34 217/225/34
f 210/219/3 211/218/3 220/226/3 219/227/3
f 212/213/1 209/212/1 218/228/1 221/229/1
f 190/192/35 197/206/35 205/207/35 213/214/35 222/230/35 215/193/35
f 220/226/3 223/222/3 186/201/3 181/200/3 216/199/3 219/227/3
f 176/194/36 215/193/36 222/230/36 185/202/36
f 185/202/37 222/230/37 221/229/37 218/228/37 217/225/37 183/203/37
f 183/203/38 217/225/38 224/188/38 180/190/38
f 184/179/3 173/185/3 189/191/3 198/221/3 195/224/3 194/223/3 191/196/3
usemtl Material.014
f 229/231/6 231/232/6 227/233/6 225/234/6
f 231/232/1 229/231/1 230/235/1 232/236/1
f 225/234/3 227/233/3 228/237/3 226/238/3
f 226/238/5 228/237/5 232/236/5 230/235/5
f 227/233/4 231/232/4 232/236/4 228/237/4
f 226/238/2 230/235/2 229/231/2 225/234/2
