# Blender v2.90.1 OBJ File: 'StageEdit0106.blend'
# www.blender.org
mtllib StageEdit0108.mtl
o 立方体_立方体.013
v -0.010000 -0.010000 0.010000
v -0.010000 0.010000 0.010000
v -0.010000 -0.010000 -0.010000
v -0.010000 0.010000 -0.010000
v 0.010000 -0.010000 0.010000
v 0.010000 0.010000 0.010000
v 0.010000 -0.010000 -0.010000
v 0.010000 0.010000 -0.010000
v -20.000000 18.000000 20.000000
v -20.000000 20.000000 20.000000
v -20.000000 18.000000 -20.000000
v -20.000000 20.000000 -20.000000
v 20.000000 18.000000 20.000000
v 20.000000 20.000000 20.000000
v 20.000000 18.000000 -20.000000
v 20.000000 20.000000 -20.000000
v 15.000000 20.000000 -15.000000
v 15.000000 20.000000 15.000000
v -15.000000 20.000000 -15.000000
v -15.000000 20.000000 15.000000
v -20.000000 -17.999998 -20.000000
v -20.000000 -19.999998 -20.000000
v -20.000000 -18.000002 20.000000
v -20.000000 -20.000000 20.000000
v 20.000000 -17.999998 -20.000000
v 20.000000 -19.999998 -20.000000
v 20.000000 -18.000002 20.000000
v 20.000000 -20.000000 20.000000
v 15.000000 -20.000000 15.000000
v 15.000000 -19.999998 -15.000000
v -15.000000 -20.000000 15.000000
v -15.000000 -19.999998 -15.000000
v 20.000000 -20.000000 -19.000000
v 20.000000 -20.000000 -22.000000
v 20.000000 20.000000 -19.000002
v 20.000000 20.000000 -22.000002
v -20.000000 -20.000000 -18.999996
v -20.000000 -20.000000 -21.999996
v -20.000000 20.000000 -18.999998
v -20.000000 20.000000 -22.000000
v 10.000000 -10.000000 -22.000000
v 10.000000 -10.000000 -22.000000
v 10.000000 10.000000 -22.000002
v 10.000000 10.000000 -22.000002
v -10.000000 -10.000000 -21.999996
v -10.000000 -10.000000 -21.999996
v -10.000000 10.000000 -22.000000
v -10.000000 10.000000 -22.000000
v -20.000000 -5.090909 -21.999996
v -20.000000 -15.000000 -21.999996
v -15.000000 15.000000 -22.000000
v -15.000000 15.000000 -22.000000
v -15.000000 -5.090909 -21.999996
v -15.000000 -15.000000 -21.999996
v -15.000000 -15.000000 -21.999996
v 15.000000 15.000000 -22.000002
v 15.000000 15.000000 -22.000002
v 15.000000 -15.000000 -22.000000
v 15.000000 -15.000000 -22.000000
v -20.000000 -20.000000 18.999998
v -20.000000 -20.000000 22.000000
v -20.000000 20.000000 19.000000
v -20.000000 20.000000 22.000000
v 20.000000 -20.000000 18.999998
v 20.000000 -20.000000 22.000000
v 20.000000 20.000000 19.000000
v 20.000000 20.000000 22.000000
v -10.000000 -10.000000 22.000000
v -10.000000 10.000000 22.000000
v 10.000000 -10.000000 22.000000
v 10.000000 10.000000 22.000000
v 15.000000 15.000000 22.000000
v 15.000000 -15.000000 22.000000
v -5.000000 20.000000 22.000000
v -5.000000 -10.000000 22.000000
v -5.000000 10.000000 22.000000
v -5.000000 -20.000000 22.000000
v -15.000000 15.000000 22.000000
v -15.000000 -15.000000 22.000000
v -19.000002 20.000000 -20.000000
v -22.000002 20.000000 -20.000000
v -18.999998 20.000000 20.000000
v -22.000000 20.000000 20.000000
v -19.000000 -20.000000 -20.000000
v -22.000000 -20.000000 -20.000000
v -18.999996 -20.000000 20.000000
v -21.999996 -20.000000 20.000000
v -21.999996 -15.000000 15.000000
v -21.999996 -15.000000 15.000000
v -22.000000 -15.000000 4.909091
v -22.000000 -15.000000 -5.090909
v -22.000000 -15.000000 -15.000000
v -22.000000 -15.000000 -15.000000
v -22.000002 -5.000000 -20.000000
v -21.999996 -5.000000 15.000000
v -22.000000 -5.000000 4.909091
v -22.000000 -5.000000 -5.090909
v -22.000000 -5.000000 -15.000000
v -22.000000 5.000000 15.000000
v -22.000000 5.000000 4.909091
v -22.000000 5.000000 -5.090909
v -22.000002 5.000000 -15.000000
v -22.000002 15.000000 -20.000000
v -22.000000 15.000000 15.000000
v -22.000000 15.000000 15.000000
v -22.000000 15.000000 4.909091
v -22.000000 15.000000 -5.090909
v -22.000002 15.000000 -15.000000
v -22.000002 15.000000 -15.000000
v 19.000000 20.000000 20.000000
v 22.000000 20.000000 20.000000
v 19.000000 20.000000 -20.000000
v 22.000000 20.000000 -20.000000
v 18.999998 -20.000000 20.000000
v 22.000000 -20.000000 20.000000
v 18.999998 -20.000000 -20.000000
v 22.000000 -20.000000 -20.000000
v 22.000000 -15.000000 -15.000000
v 22.000000 -15.000000 -4.909091
v 22.000000 -15.000000 5.090909
v 22.000000 -15.000000 15.000000
v 22.000000 -5.000000 -15.000000
v 22.000000 -5.000000 -4.909091
v 22.000000 -5.000000 5.090909
v 22.000000 -5.000000 15.000000
v 22.000000 5.000000 -15.000000
v 22.000000 5.000000 -4.909091
v 22.000000 5.000000 5.090909
v 22.000000 5.000000 15.000000
v 22.000000 15.000000 20.000000
v 22.000000 15.000000 -20.000000
v 22.000000 15.000000 -15.000000
v 22.000000 15.000000 -4.909091
v 22.000000 15.000000 5.090909
v 22.000000 15.000000 15.000000
vt 0.625000 0.000000
vt 0.375000 0.250000
vt 0.375000 0.000000
vt 0.625000 0.250000
vt 0.375000 0.500000
vt 0.625000 0.500000
vt 0.375000 0.750000
vt 0.625000 0.750000
vt 0.375000 1.000000
vt 0.125000 0.750000
vt 0.125000 0.500000
vt 0.875000 0.500000
vt 0.625000 0.750000
vt 0.875000 0.500000
vt 0.875000 0.750000
vt 0.343750 0.531250
vt 0.156250 0.500000
vt 0.343750 0.500000
vt 0.375000 0.500000
vt 0.625000 0.500000
vt 0.625000 0.250000
vt 0.375000 0.000000
vt 0.625000 0.000000
vt 0.343750 0.718750
vt 0.375000 0.531250
vt 0.375000 0.718750
vt 0.625000 1.000000
vt 0.375000 0.750000
vt 0.375000 0.250000
vt 0.156250 0.531250
vt 0.125000 0.718750
vt 0.125000 0.531250
vt 0.343750 0.750000
vt 0.156250 0.718750
vt 0.625000 0.750000
vt 0.875000 0.500000
vt 0.875000 0.750000
vt 0.343750 0.531250
vt 0.156250 0.500000
vt 0.343750 0.500000
vt 0.375000 0.500000
vt 0.625000 0.500000
vt 0.625000 0.250000
vt 0.375000 0.000000
vt 0.625000 0.000000
vt 0.375000 0.718750
vt 0.375000 0.531250
vt 0.625000 1.000000
vt 0.375000 0.750000
vt 0.375000 0.250000
vt 0.156250 0.531250
vt 0.125000 0.718750
vt 0.125000 0.531250
vt 0.343750 0.750000
vt 0.156250 0.718750
vt 0.343750 0.718750
vt 0.625000 0.656818
vt 0.625000 0.718750
vt 0.375000 0.718750
vt 0.625000 0.250000
vt 0.375000 0.000000
vt 0.625000 0.000000
vt 0.343750 0.718750
vt 0.375000 0.531250
vt 0.625000 1.000000
vt 0.375000 0.750000
vt 0.625000 0.750000
vt 0.625000 0.500000
vt 0.375000 0.250000
vt 0.812500 0.687500
vt 0.687500 0.562500
vt 0.812500 0.562500
vt 0.875000 0.500000
vt 0.875000 0.750000
vt 0.843750 0.531250
vt 0.656250 0.656818
vt 0.000000 0.000000
vt 0.000000 0.000000
vt 0.000000 0.000000
vt 0.000000 0.000000
vt 0.000000 0.000000
vt 0.000000 0.000000
vt 0.000000 0.000000
vt 0.000000 0.000000
vt 0.000000 0.000000
vt 0.000000 0.000000
vt 0.000000 0.000000
vt 0.000000 0.000000
vt 0.000000 0.000000
vt 0.000000 0.000000
vt 0.000000 0.000000
vt 0.000000 0.000000
vt 0.375000 0.031250
vt 0.375000 0.218750
vt 0.156250 0.718750
vt 0.375000 0.781250
vt 0.375000 0.968750
vt 0.375000 0.468750
vt 0.375000 0.281250
vt 0.875000 0.750000
vt 0.812500 0.562500
vt 0.875000 0.500000
vt 0.625000 0.750000
vt 0.375000 0.500000
vt 0.625000 0.500000
vt 0.625000 0.250000
vt 0.375000 0.000000
vt 0.625000 0.000000
vt 0.343750 0.718750
vt 0.375000 0.531250
vt 0.375000 0.718750
vt 0.625000 0.906250
vt 0.375000 0.968750
vt 0.375000 0.750000
vt 0.375000 0.250000
vt 0.625000 0.343750
vt 0.375000 0.468750
vt 0.687500 0.687500
vt 0.156250 0.531250
vt 0.375000 0.031250
vt 0.375000 0.218750
vt 0.375000 0.281250
vt 0.156250 0.718750
vt 0.375000 0.781250
vt 0.625000 0.750000
vt 0.375000 0.500000
vt 0.625000 0.500000
vt 0.625000 0.250000
vt 0.375000 0.000000
vt 0.625000 0.000000
vt 0.625000 0.843750
vt 0.625000 0.968750
vt 0.375000 0.968750
vt 0.375000 0.250000
vt 0.718750 0.718750
vt 0.718750 0.656818
vt 0.781250 0.718750
vt 0.656250 0.531250
vt 0.656250 0.594318
vt 0.781250 0.594318
vt 0.718750 0.531250
vt 0.781250 0.531250
vt 0.375000 0.718750
vt 0.000000 0.000000
vt 0.375000 0.531250
vt 0.000000 0.000000
vt 0.375000 0.781250
vt 0.000000 0.000000
vt 0.375000 0.031250
vt 0.375000 0.218750
vt 0.375000 0.281250
vt 0.375000 0.468750
vt 0.843750 0.594318
vt 0.843750 0.500000
vt 0.875000 0.500000
vt 0.625000 0.750000
vt 0.375000 0.500000
vt 0.625000 0.500000
vt 0.625000 0.250000
vt 0.375000 0.000000
vt 0.625000 0.000000
vt 0.625000 0.968750
vt 0.375000 0.968750
vt 0.375000 0.750000
vt 0.375000 0.250000
vt 0.625000 0.281250
vt 0.375000 0.468750
vt 0.656250 0.594318
vt 0.781250 0.656818
vt 0.718750 0.594318
vt 0.781250 0.594318
vt 0.375000 0.218750
vt 0.000000 0.000000
vt 0.375000 0.031250
vt 0.000000 0.000000
vt 0.375000 0.281250
vt 0.375000 0.718750
vt 0.000000 0.000000
vt 0.375000 0.531250
vt 0.000000 0.000000
vt 0.375000 0.781250
vt 0.781250 0.531250
vt 0.718750 0.531250
vt 0.656250 0.656818
vt 0.718750 0.718750
vt 0.718750 0.656818
vt 0.000000 0.000000
vt 0.000000 0.000000
vt 0.000000 0.000000
vt 0.656250 0.656818
vt 0.718750 0.594318
vt 0.781250 0.656818
vt 0.843750 0.594318
vt 0.781250 0.718750
vt 0.843750 0.656818
vt 0.625000 1.000000
vt 0.875000 0.750000
vt 0.375000 0.218750
vt 0.375000 0.968750
vt 0.375000 0.468750
vt 0.156250 0.750000
vt 0.375000 0.218750
vt 0.375000 0.968750
vt 0.375000 0.468750
vt 0.156250 0.750000
vt 0.375000 0.500000
vt 0.343750 0.531250
vt 0.687500 0.687500
vt 0.656250 0.531250
vt 0.656250 0.718750
vt 0.843750 0.718750
vt 0.781250 0.750000
vt 0.812500 0.687500
vt 0.781250 0.687500
vt 0.781250 0.562500
vt 0.781250 0.500000
vt 0.343750 0.531250
vt 0.625000 1.000000
vt 0.687500 0.562500
vt 0.375000 0.750000
vt 0.625000 1.000000
vt 0.843750 0.718750
vt 0.843750 0.750000
vt 0.718750 0.750000
vt 0.875000 0.500000
vt 0.875000 0.750000
vt 0.843750 0.656818
vt 0.656250 0.718750
vt 0.843750 0.531250
vt 0.000000 0.000000
vt 0.875000 0.750000
vt 0.843750 0.750000
vt 0.625000 1.000000
vt 0.000000 0.000000
vn -1.0000 0.0000 0.0000
vn 0.0000 0.0000 -1.0000
vn 1.0000 0.0000 0.0000
vn 0.0000 0.0000 1.0000
vn 0.0000 -1.0000 0.0000
vn 0.0000 1.0000 0.0000
vn 0.0000 -0.9285 0.3714
vn -0.3714 -0.9285 0.0000
vn 0.3714 -0.9285 0.0000
vn 0.0000 -0.9285 -0.3714
vn 0.0000 0.9285 -0.3714
vn -0.3714 0.9285 0.0000
vn 0.3714 0.9285 0.0000
vn 0.0000 0.9285 0.3714
vn 0.5145 0.0000 0.8575
vn -0.5145 0.0000 0.8575
vn 0.0000 0.5145 0.8575
vn 0.0000 -0.5145 0.8575
vn -0.5145 0.0000 -0.8575
vn 0.5145 0.0000 -0.8575
vn 0.0000 -0.5145 -0.8575
vn 0.0000 0.5145 -0.8575
vn 0.8575 0.5145 -0.0000
vn 0.8575 0.0000 0.5145
vn 0.8575 -0.5145 -0.0000
vn 0.8575 0.0000 -0.5145
vn -0.8575 -0.5145 0.0000
vn -0.8575 0.0000 0.5145
vn -0.8575 0.5145 0.0000
vn -0.8575 0.0000 -0.5145
usemtl None
s off
f 2/1/1 3/2/1 1/3/1
f 4/4/2 7/5/2 3/2/2
f 8/6/3 5/7/3 7/5/3
f 6/8/4 1/9/4 5/7/4
f 7/5/5 1/10/5 3/11/5
f 4/12/6 6/8/6 8/6/6
f 14/13/6 12/14/6 10/15/6
f 17/16/7 11/17/7 15/18/7
f 14/13/3 15/19/3 16/20/3
f 12/21/1 9/22/1 10/23/1
f 18/24/8 15/25/8 13/26/8
f 10/27/4 13/28/4 14/13/4
f 16/20/2 11/29/2 12/21/2
f 19/30/9 9/31/9 11/32/9
f 13/33/10 20/34/10 18/24/10
f 26/35/5 24/36/5 22/37/5
f 29/38/11 23/39/11 27/40/11
f 26/35/3 27/41/3 28/42/3
f 24/43/1 21/44/1 22/45/1
f 25/46/12 29/38/12 27/47/12
f 22/48/2 25/49/2 26/35/2
f 28/42/4 23/50/4 24/43/4
f 31/51/13 21/52/13 23/53/13
f 25/54/14 32/55/14 30/56/14
f 49/57/1 50/58/1 37/59/1
f 36/60/3 33/61/3 34/62/3
f 55/63/15 39/64/15 37/59/15
f 34/65/5 37/66/5 38/67/5
f 40/68/6 35/69/6 36/60/6
f 42/70/2 47/71/2 44/72/2
f 36/73/2 34/74/2 57/75/2
f 53/76/2 50/58/2 49/57/2
f 55/77/4 59/78/4 58/79/4
f 51/80/4 56/81/4 57/82/4
f 57/82/4 58/79/4 59/78/4
f 47/83/4 43/84/4 48/85/4
f 42/86/4 43/84/4 44/87/4
f 41/88/4 45/89/4 46/90/4
f 46/90/4 47/83/4 48/85/4
f 54/91/4 52/92/4 51/80/4
f 56/81/16 33/93/16 35/94/16
f 58/95/17 37/96/17 33/97/17
f 39/98/18 56/81/18 35/99/18
f 61/100/4 69/101/4 63/102/4
f 65/103/3 66/104/3 67/105/3
f 63/106/1 60/107/1 61/108/1
f 73/109/19 66/110/19 64/111/19
f 77/112/5 60/113/5 64/114/5
f 62/115/6 74/116/6 66/117/6
f 70/118/4 65/103/4 67/105/4
f 78/119/20 60/120/20 62/121/20
f 66/117/21 78/119/21 62/122/21
f 79/123/22 64/124/22 60/113/22
f 85/125/5 86/126/5 87/127/5
f 83/128/6 80/129/6 81/130/6
f 94/131/2 103/132/2 80/133/2
f 87/127/4 82/134/4 83/128/4
f 98/135/1 97/136/1 102/137/1
f 88/138/1 90/139/1 87/127/1
f 100/140/1 95/141/1 99/142/1
f 84/143/23 89/144/23 86/145/23
f 108/146/24 84/147/24 80/133/24
f 104/148/25 80/149/25 82/150/25
f 89/144/26 82/151/26 86/152/26
f 133/153/3 131/154/3 113/155/3
f 115/156/5 116/157/5 117/158/5
f 113/159/6 110/160/6 111/161/6
f 130/162/4 110/163/4 114/164/4
f 112/165/2 131/166/2 116/167/2
f 115/156/3 117/158/3 119/168/3
f 128/169/3 123/170/3 127/171/3
f 112/172/27 135/173/27 110/174/27
f 116/167/28 132/175/28 112/176/28
f 114/177/29 118/178/29 116/179/29
f 110/163/30 121/180/30 114/181/30
f 133/153/1 126/182/1 127/171/1
f 122/183/1 119/168/1 123/170/1
f 120/184/1 125/185/1 124/186/1
f 101/187/3 98/188/3 102/189/3
f 91/190/3 96/191/3 90/139/3
f 101/192/3 106/193/3 100/140/3
f 20/34/5 17/16/5 18/24/5
f 129/194/1 134/195/1 128/169/1
f 44/87/2 46/90/2 48/85/2
f 2/1/1 4/4/1 3/2/1
f 4/4/2 8/6/2 7/5/2
f 8/6/3 6/8/3 5/7/3
f 6/8/4 2/196/4 1/9/4
f 7/5/5 5/7/5 1/10/5
f 4/12/6 2/197/6 6/8/6
f 14/13/6 16/20/6 12/14/6
f 17/16/7 19/30/7 11/17/7
f 14/13/3 13/26/3 15/19/3
f 12/21/1 11/198/1 9/22/1
f 18/24/8 17/16/8 15/25/8
f 10/27/4 9/199/4 13/28/4
f 16/20/2 15/200/2 11/29/2
f 19/30/9 20/34/9 9/31/9
f 13/33/10 9/201/10 20/34/10
f 26/35/5 28/42/5 24/36/5
f 29/38/11 31/51/11 23/39/11
f 26/35/3 25/46/3 27/41/3
f 24/43/1 23/202/1 21/44/1
f 25/46/12 30/56/12 29/38/12
f 22/48/2 21/203/2 25/49/2
f 28/42/4 27/204/4 23/50/4
f 31/51/13 32/55/13 21/52/13
f 25/54/14 21/205/14 32/55/14
f 39/206/1 40/68/1 49/57/1
f 50/58/1 38/67/1 37/59/1
f 39/206/1 49/57/1 37/59/1
f 36/60/3 35/94/3 33/61/3
f 55/63/15 52/207/15 39/64/15
f 34/65/5 33/97/5 37/66/5
f 40/68/6 39/98/6 35/69/6
f 42/70/2 45/208/2 47/71/2
f 51/209/2 53/76/2 49/57/2
f 34/74/2 38/67/2 54/210/2
f 38/67/2 50/58/2 54/210/2
f 54/210/2 59/211/2 34/74/2
f 51/209/2 49/57/2 40/68/2
f 57/75/2 51/209/2 40/68/2
f 57/75/2 40/68/2 36/73/2
f 34/74/2 59/211/2 57/75/2
f 53/76/2 54/210/2 50/58/2
f 55/77/4 54/91/4 59/78/4
f 51/80/4 52/92/4 56/81/4
f 57/82/4 56/81/4 58/79/4
f 47/83/4 44/87/4 43/84/4
f 42/86/4 41/88/4 43/84/4
f 41/88/4 42/86/4 45/89/4
f 46/90/4 45/89/4 47/83/4
f 54/91/4 55/77/4 52/92/4
f 56/81/16 58/95/16 33/93/16
f 58/95/17 55/77/17 37/96/17
f 39/98/18 52/92/18 56/81/18
f 61/100/4 77/212/4 68/213/4
f 77/212/4 75/214/4 68/213/4
f 76/215/4 74/216/4 69/101/4
f 74/216/4 63/102/4 69/101/4
f 61/100/4 68/213/4 69/101/4
f 65/103/3 64/111/3 66/104/3
f 63/106/1 62/121/1 60/107/1
f 73/109/19 72/217/19 66/110/19
f 64/114/5 65/103/5 77/112/5
f 77/112/5 61/218/5 60/113/5
f 63/106/6 74/116/6 62/115/6
f 74/116/6 67/105/6 66/117/6
f 67/105/4 74/216/4 71/219/4
f 74/216/4 76/215/4 71/219/4
f 75/214/4 77/212/4 70/118/4
f 77/212/4 65/103/4 70/118/4
f 67/105/4 71/219/4 70/118/4
f 78/119/20 79/123/20 60/120/20
f 66/117/21 72/217/21 78/119/21
f 79/123/22 73/109/22 64/124/22
f 85/125/5 84/143/5 86/126/5
f 83/128/6 82/150/6 80/129/6
f 84/220/2 85/125/2 94/131/2
f 103/132/2 81/221/2 80/133/2
f 84/220/2 94/131/2 80/133/2
f 87/127/4 86/152/4 82/134/4
f 97/136/1 101/192/1 102/137/1
f 102/137/1 109/222/1 103/223/1
f 103/223/1 94/224/1 102/137/1
f 94/224/1 98/135/1 102/137/1
f 83/225/1 81/226/1 107/227/1
f 81/226/1 103/223/1 109/222/1
f 109/222/1 107/227/1 81/226/1
f 98/135/1 94/224/1 92/228/1
f 94/224/1 85/125/1 92/228/1
f 107/227/1 101/192/1 100/140/1
f 107/227/1 100/140/1 106/193/1
f 92/228/1 85/125/1 91/190/1
f 85/125/1 87/127/1 91/190/1
f 96/191/1 97/136/1 91/190/1
f 83/225/1 107/227/1 106/193/1
f 105/229/1 99/142/1 83/225/1
f 99/142/1 95/141/1 83/225/1
f 83/225/1 106/193/1 105/229/1
f 90/139/1 96/191/1 91/190/1
f 95/141/1 88/138/1 87/127/1
f 83/225/1 95/141/1 87/127/1
f 90/139/1 91/190/1 87/127/1
f 100/140/1 96/191/1 95/141/1
f 84/143/23 93/230/23 89/144/23
f 108/146/24 93/230/24 84/147/24
f 104/148/25 108/146/25 80/149/25
f 89/144/26 104/148/26 82/151/26
f 113/155/3 111/231/3 134/195/3
f 111/231/3 130/232/3 134/195/3
f 134/195/3 133/153/3 113/155/3
f 115/156/5 114/177/5 116/157/5
f 113/159/6 112/172/6 110/160/6
f 114/164/4 115/156/4 130/162/4
f 130/162/4 111/233/4 110/163/4
f 113/159/2 131/166/2 112/165/2
f 131/166/2 117/158/2 116/167/2
f 120/184/3 124/186/3 125/185/3
f 129/194/3 128/169/3 134/195/3
f 129/194/3 134/195/3 130/232/3
f 131/154/3 133/153/3 126/182/3
f 133/153/3 127/171/3 126/182/3
f 129/194/3 130/232/3 125/185/3
f 130/232/3 115/156/3 125/185/3
f 117/158/3 131/154/3 122/183/3
f 131/154/3 126/182/3 122/183/3
f 122/183/3 123/170/3 119/168/3
f 120/184/3 125/185/3 115/156/3
f 117/158/3 122/183/3 119/168/3
f 119/168/3 120/184/3 115/156/3
f 128/169/3 124/186/3 123/170/3
f 112/172/27 132/175/27 135/173/27
f 116/167/28 118/178/28 132/175/28
f 114/177/29 121/180/29 118/178/29
f 110/163/30 135/173/30 121/180/30
f 133/153/1 132/175/1 126/182/1
f 122/183/1 118/178/1 119/168/1
f 120/184/1 121/180/1 125/185/1
f 101/187/3 97/234/3 98/188/3
f 91/190/3 97/136/3 96/191/3
f 101/192/3 107/227/3 106/193/3
f 20/34/5 19/30/5 17/16/5
f 129/194/1 135/173/1 134/195/1
f 44/87/2 42/86/2 46/90/2
l 89 88
l 93 92
l 109 108
l 105 104
