# Blender v2.91.2 OBJ File: 'AriBox0203.blend'
# www.blender.org
mtllib AriBox0205.mtl
o 立方体_立方体.007
v -30.000000 -30.000000 30.000000
v -30.000000 -28.000000 30.000000
v -30.000000 -30.000000 -30.000000
v -30.000000 -28.000000 -30.000000
v 30.000000 -30.000000 30.000000
v 30.000000 -28.000000 30.000000
v 30.000000 -30.000000 -30.000000
v 30.000000 -28.000000 -30.000000
v -30.000000 28.000000 30.000000
v -30.000000 30.000000 30.000000
v -30.000000 28.000000 -30.000000
v -30.000000 30.000000 -30.000000
v 30.000000 28.000000 30.000000
v 30.000000 30.000000 30.000000
v 30.000000 28.000000 -30.000000
v 30.000000 30.000000 -30.000000
v -30.000000 30.000000 29.999998
v -30.000000 30.000000 27.999998
v -30.000000 -30.000000 30.000002
v -30.000000 -30.000000 28.000002
v 30.000000 30.000000 29.999998
v 30.000000 30.000000 27.999998
v 30.000000 -30.000000 30.000002
v 30.000000 -30.000000 28.000002
v -30.000000 -30.000000 -30.000002
v -30.000000 -30.000000 -28.000002
v -30.000000 30.000000 -29.999998
v -30.000000 30.000000 -27.999998
v 30.000000 -30.000000 -30.000002
v 30.000000 -30.000000 -28.000002
v 30.000000 30.000000 -29.999998
v 30.000000 30.000000 -27.999998
v -27.999998 -30.000000 30.000000
v -29.999998 -30.000000 30.000000
v -27.999998 -30.000000 -30.000000
v -29.999998 -30.000000 -30.000000
v -28.000002 30.000000 30.000000
v -30.000002 30.000000 30.000000
v -28.000002 30.000000 -30.000000
v -30.000002 30.000000 -30.000000
v 28.000002 30.000000 30.000000
v 30.000002 30.000000 30.000000
v 28.000002 30.000000 -30.000000
v 30.000002 30.000000 -30.000000
v 27.999998 -30.000000 30.000000
v 29.999998 -30.000000 30.000000
v 27.999998 -30.000000 -30.000000
v 29.999998 -30.000000 -30.000000
vt 0.625000 0.000000
vt 0.375000 0.250000
vt 0.375000 0.000000
vt 0.625000 0.250000
vt 0.375000 0.500000
vt 0.625000 0.500000
vt 0.375000 0.750000
vt 0.625000 0.750000
vt 0.375000 1.000000
vt 0.125000 0.750000
vt 0.125000 0.500000
vt 0.875000 0.500000
vt 0.625000 0.000000
vt 0.375000 0.250000
vt 0.375000 0.000000
vt 0.625000 0.250000
vt 0.375000 0.500000
vt 0.625000 0.500000
vt 0.375000 0.750000
vt 0.625000 0.750000
vt 0.375000 1.000000
vt 0.125000 0.750000
vt 0.125000 0.500000
vt 0.875000 0.500000
vt 0.625000 0.000000
vt 0.375000 0.250000
vt 0.375000 0.000000
vt 0.625000 0.250000
vt 0.375000 0.500000
vt 0.625000 0.500000
vt 0.375000 0.750000
vt 0.625000 0.750000
vt 0.375000 1.000000
vt 0.125000 0.750000
vt 0.125000 0.500000
vt 0.875000 0.500000
vt 0.625000 0.000000
vt 0.375000 0.250000
vt 0.375000 0.000000
vt 0.625000 0.250000
vt 0.375000 0.500000
vt 0.625000 0.500000
vt 0.375000 0.750000
vt 0.625000 0.750000
vt 0.375000 1.000000
vt 0.125000 0.750000
vt 0.125000 0.500000
vt 0.875000 0.500000
vt 0.625000 0.000000
vt 0.375000 0.250000
vt 0.375000 0.000000
vt 0.625000 0.250000
vt 0.375000 0.500000
vt 0.625000 0.500000
vt 0.375000 0.750000
vt 0.625000 0.750000
vt 0.375000 1.000000
vt 0.125000 0.750000
vt 0.125000 0.500000
vt 0.875000 0.500000
vt 0.625000 0.000000
vt 0.375000 0.250000
vt 0.375000 0.000000
vt 0.625000 0.250000
vt 0.375000 0.500000
vt 0.625000 0.500000
vt 0.375000 0.750000
vt 0.625000 0.750000
vt 0.375000 1.000000
vt 0.125000 0.750000
vt 0.125000 0.500000
vt 0.875000 0.500000
vt 0.625000 1.000000
vt 0.875000 0.750000
vt 0.625000 1.000000
vt 0.875000 0.750000
vt 0.625000 1.000000
vt 0.875000 0.750000
vt 0.625000 1.000000
vt 0.875000 0.750000
vt 0.625000 1.000000
vt 0.875000 0.750000
vt 0.625000 1.000000
vt 0.875000 0.750000
vn -1.0000 0.0000 0.0000
vn 0.0000 0.0000 -1.0000
vn 1.0000 0.0000 0.0000
vn 0.0000 0.0000 1.0000
vn 0.0000 -1.0000 0.0000
vn 0.0000 1.0000 0.0000
usemtl マテリアル
s off
f 2/1/1 3/2/1 1/3/1
f 4/4/2 7/5/2 3/2/2
f 8/6/3 5/7/3 7/5/3
f 6/8/4 1/9/4 5/7/4
f 7/5/5 1/10/5 3/11/5
f 4/12/6 6/8/6 8/6/6
f 10/13/1 11/14/1 9/15/1
f 12/16/2 15/17/2 11/14/2
f 16/18/3 13/19/3 15/17/3
f 14/20/4 9/21/4 13/19/4
f 15/17/5 9/22/5 11/23/5
f 12/24/6 14/20/6 16/18/6
f 18/25/1 19/26/1 17/27/1
f 20/28/5 23/29/5 19/26/5
f 24/30/3 21/31/3 23/29/3
f 22/32/6 17/33/6 21/31/6
f 23/29/4 17/34/4 19/35/4
f 20/36/2 22/32/2 24/30/2
f 26/37/1 27/38/1 25/39/1
f 28/40/6 31/41/6 27/38/6
f 32/42/3 29/43/3 31/41/3
f 30/44/5 25/45/5 29/43/5
f 31/41/2 25/46/2 27/47/2
f 28/48/4 30/44/4 32/42/4
f 34/49/5 35/50/5 33/51/5
f 36/52/2 39/53/2 35/50/2
f 40/54/6 37/55/6 39/53/6
f 38/56/4 33/57/4 37/55/4
f 39/53/3 33/58/3 35/59/3
f 36/60/1 38/56/1 40/54/1
f 42/61/6 43/62/6 41/63/6
f 44/64/2 47/65/2 43/62/2
f 48/66/5 45/67/5 47/65/5
f 46/68/4 41/69/4 45/67/4
f 47/65/1 41/70/1 43/71/1
f 44/72/3 46/68/3 48/66/3
f 2/1/1 4/4/1 3/2/1
f 4/4/2 8/6/2 7/5/2
f 8/6/3 6/8/3 5/7/3
f 6/8/4 2/73/4 1/9/4
f 7/5/5 5/7/5 1/10/5
f 4/12/6 2/74/6 6/8/6
f 10/13/1 12/16/1 11/14/1
f 12/16/2 16/18/2 15/17/2
f 16/18/3 14/20/3 13/19/3
f 14/20/4 10/75/4 9/21/4
f 15/17/5 13/19/5 9/22/5
f 12/24/6 10/76/6 14/20/6
f 18/25/1 20/28/1 19/26/1
f 20/28/5 24/30/5 23/29/5
f 24/30/3 22/32/3 21/31/3
f 22/32/6 18/77/6 17/33/6
f 23/29/4 21/31/4 17/34/4
f 20/36/2 18/78/2 22/32/2
f 26/37/1 28/40/1 27/38/1
f 28/40/6 32/42/6 31/41/6
f 32/42/3 30/44/3 29/43/3
f 30/44/5 26/79/5 25/45/5
f 31/41/2 29/43/2 25/46/2
f 28/48/4 26/80/4 30/44/4
f 34/49/5 36/52/5 35/50/5
f 36/52/2 40/54/2 39/53/2
f 40/54/6 38/56/6 37/55/6
f 38/56/4 34/81/4 33/57/4
f 39/53/3 37/55/3 33/58/3
f 36/60/1 34/82/1 38/56/1
f 42/61/6 44/64/6 43/62/6
f 44/64/2 48/66/2 47/65/2
f 48/66/5 46/68/5 45/67/5
f 46/68/4 42/83/4 41/69/4
f 47/65/1 45/67/1 41/70/1
f 44/72/3 42/84/3 46/68/3
